<?xml version="1.0" standalone="no"?>
<!DOCTYPE svg PUBLIC "-//W3C//DTD SVG 20010904//EN"
 "http://www.w3.org/TR/2001/REC-SVG-20010904/DTD/svg10.dtd">
<svg version="1.0" xmlns="http://www.w3.org/2000/svg"
 width="1040.000000pt" height="1040.000000pt" viewBox="0 0 1040.000000 1040.000000"
 preserveAspectRatio="xMidYMid meet">
<metadata>
Created by potrace 1.14, written by Peter Selinger 2001-2017
</metadata>
<g transform="translate(0.000000,1040.000000) scale(0.100000,-0.100000)"
fill="#000000" stroke="none">
<path d="M660 5200 l0 -5200 1072 2 1072 3 1 70 c0 39 -4 73 -10 77 -7 6 -7
10 0 15 14 10 13 196 0 205 -7 5 -7 8 0 8 13 0 13 100 0 100 -7 0 -7 3 0 8 14
9 13 195 0 204 -7 5 -7 8 0 8 13 0 13 100 0 100 -7 0 -7 3 0 8 14 9 13 195 0
204 -7 5 -7 8 0 8 13 0 13 100 0 100 -7 0 -7 3 0 8 14 9 13 195 0 204 -7 5 -7
8 0 8 13 0 13 100 0 100 -7 0 -7 3 0 8 14 9 13 195 0 204 -7 5 -7 8 0 8 13 0
13 100 0 100 -7 0 -7 3 0 8 14 9 13 195 0 204 -7 5 -7 8 0 8 13 0 13 100 0
100 -7 0 -7 3 0 8 14 9 13 195 0 204 -7 5 -7 8 0 8 13 0 13 100 0 100 -7 0 -7
3 0 8 14 9 13 195 0 204 -7 5 -7 8 0 8 6 0 10 43 10 110 0 61 -3 110 -8 110
-4 0 -5 6 0 13 10 16 10 337 1 337 -5 0 -8 5 -8 11 0 5 3 8 8 6 4 -3 7 42 7
99 0 63 -4 104 -10 104 -6 0 -6 3 0 8 14 9 14 245 0 254 -7 5 -7 8 0 8 12 0
13 79 2 98 -5 6 -4 12 0 12 5 0 8 37 8 83 l-1 83 1145 -1 1145 0 25 -42 c33
-53 57 -96 59 -106 1 -4 8 -15 17 -23 8 -9 15 -22 15 -30 0 -8 5 -14 10 -14 6
0 10 -4 10 -10 0 -5 14 -33 31 -62 18 -29 41 -69 51 -88 67 -119 163 -286 168
-290 3 -3 12 -20 19 -37 8 -18 17 -33 22 -33 5 0 9 -5 9 -10 0 -6 17 -39 38
-73 21 -35 41 -71 45 -80 3 -9 21 -41 40 -69 18 -29 40 -68 48 -86 7 -17 17
-32 20 -32 4 0 9 -8 12 -18 7 -19 49 -95 64 -114 6 -7 24 -38 40 -68 17 -30
39 -71 51 -91 11 -20 26 -47 34 -60 7 -13 18 -27 23 -31 6 -4 6 -8 1 -8 -5 0
-2 -8 6 -17 8 -10 37 -56 63 -103 26 -47 71 -125 99 -173 28 -49 57 -100 65
-115 8 -15 17 -29 20 -32 3 -3 17 -27 31 -53 14 -27 30 -56 35 -65 45 -75 85
-144 85 -148 0 -3 16 -30 35 -60 19 -30 35 -58 35 -63 0 -5 6 -16 13 -23 12
-13 28 -40 64 -108 10 -19 21 -37 24 -40 3 -3 12 -17 20 -31 33 -62 81 -147
102 -184 95 -160 247 -429 247 -436 0 -5 3 -9 8 -9 4 0 18 -23 31 -50 14 -28
29 -50 33 -50 4 0 8 -6 8 -12 0 -7 27 -58 60 -113 33 -55 60 -106 60 -112 0
-7 5 -13 10 -13 6 0 10 -5 10 -11 0 -6 13 -31 30 -56 16 -24 30 -48 30 -52 0
-4 18 -36 40 -70 22 -34 40 -64 40 -67 0 -3 28 -53 62 -110 l62 -104 1178 0
c820 0 1178 3 1178 11 0 5 -25 52 -55 104 -31 52 -55 96 -53 99 2 2 -4 12 -13
22 -9 11 -27 39 -40 64 -13 25 -28 48 -34 52 -5 4 -6 8 -1 8 5 0 2 8 -6 18 -8
9 -18 24 -21 32 -4 8 -18 33 -31 55 -14 22 -37 64 -51 93 -15 28 -30 52 -34
52 -4 0 -13 16 -20 35 -7 19 -18 40 -24 47 -7 7 -20 29 -29 48 -9 19 -24 46
-32 60 -9 14 -56 97 -106 185 -50 88 -95 167 -100 175 -6 8 -15 27 -21 42 -6
16 -15 28 -20 28 -5 0 -9 5 -9 11 0 6 -19 43 -42 82 -23 40 -41 75 -40 80 1 4
-2 7 -8 7 -5 0 -10 4 -10 10 0 5 -18 39 -40 75 -22 36 -40 67 -40 69 0 2 -32
60 -71 128 -40 67 -81 141 -93 163 -11 22 -23 42 -26 45 -3 3 -18 30 -34 60
-16 30 -35 62 -42 71 -8 8 -14 20 -14 26 0 6 -10 23 -22 39 -13 16 -21 29 -19
29 3 0 -2 11 -11 25 -24 38 -64 109 -90 160 -13 25 -26 47 -29 50 -3 3 -19 30
-36 60 -83 152 -126 225 -135 228 -4 2 -8 9 -8 17 0 7 -30 64 -67 126 -36 63
-77 134 -90 159 -13 25 -33 61 -45 80 -34 58 -149 261 -181 320 -17 30 -33 57
-36 60 -3 3 -14 21 -23 40 -10 19 -31 58 -47 85 -16 28 -42 72 -56 99 -44 81
-50 91 -55 96 -10 9 -110 193 -110 202 0 4 -4 8 -10 8 -5 0 -10 4 -10 9 0 4
-54 102 -119 217 l-119 209 62 23 c33 13 66 25 71 26 6 1 27 10 49 19 21 9 40
17 42 17 2 0 53 23 112 52 59 28 109 52 112 52 3 1 21 11 41 24 20 12 39 22
43 22 10 0 111 64 114 72 2 4 8 8 14 8 8 0 176 111 211 140 7 6 32 26 57 46
153 123 331 298 425 418 29 36 36 46 78 95 9 12 17 23 17 26 0 3 19 31 43 62
53 73 66 93 73 116 4 9 10 17 15 17 5 0 9 6 9 14 0 8 3 16 8 18 4 2 17 21 30
43 28 49 145 286 148 300 1 6 14 36 28 68 14 31 23 57 20 57 -4 0 -1 7 6 15 7
8 9 15 5 15 -4 0 -2 6 4 14 7 8 14 22 16 32 2 11 13 47 24 80 12 34 23 73 25
85 3 13 5 25 7 27 1 1 2 5 3 10 1 4 12 48 23 97 21 88 29 125 39 195 8 52 12
75 14 75 1 0 3 18 5 40 2 22 6 58 8 80 25 221 26 637 2 835 -3 19 -7 58 -10
85 -3 28 -7 61 -10 75 -2 14 -6 41 -9 60 -16 98 -26 152 -45 230 -13 51 -19
76 -25 105 -2 11 -16 55 -30 99 -14 43 -26 84 -26 90 0 6 -6 22 -13 36 -7 14
-21 48 -31 75 -38 103 -131 297 -180 373 -14 23 -26 46 -26 51 0 5 -3 11 -7
13 -9 3 -53 64 -53 72 0 8 -83 118 -144 191 -52 63 -291 305 -301 305 -3 0
-16 9 -28 21 -12 11 -35 30 -50 42 -16 12 -41 31 -55 43 -30 23 -188 130 -242
162 -62 38 -252 135 -340 175 -66 30 -234 98 -250 101 -8 2 -23 6 -32 9 -22 9
-51 18 -58 19 -3 1 -43 14 -88 29 -46 16 -87 28 -90 27 -4 -1 -14 2 -22 5 -15
6 -129 36 -163 43 -10 2 -27 6 -38 9 -11 4 -32 8 -47 10 -15 3 -38 7 -52 10
-14 3 -36 8 -50 11 -14 2 -36 7 -50 10 -14 4 -36 8 -50 9 -14 2 -69 10 -123
19 -54 9 -103 14 -108 11 -5 -4 -9 -3 -9 2 0 7 -56 14 -127 16 -13 1 -23 3
-23 7 0 3 -19 6 -43 6 -96 4 -152 8 -160 12 -24 12 -390 15 -2774 19 l-2613 4
0 -5201z m4701 3455 c85 -3 170 -8 189 -10 170 -16 268 -32 432 -70 31 -7 59
-10 62 -7 3 3 6 0 6 -6 0 -7 8 -12 18 -12 25 0 185 -56 260 -91 35 -16 67 -29
72 -29 6 0 10 -4 10 -10 0 -5 6 -10 13 -10 7 0 54 -27 104 -59 115 -74 303
-259 303 -298 0 -7 4 -13 9 -13 10 0 101 -173 115 -220 11 -34 13 -40 16 -42
1 -2 3 -10 6 -18 35 -129 45 -171 50 -205 3 -22 8 -51 10 -65 23 -119 23 -516
1 -625 -3 -11 -8 -40 -12 -65 -5 -25 -10 -52 -11 -60 -5 -30 -25 -105 -31
-120 -3 -8 -7 -18 -8 -22 -2 -5 -3 -9 -5 -10 -1 -2 -3 -11 -5 -20 -15 -80
-158 -318 -243 -403 -60 -61 -143 -131 -150 -127 -2 2 -8 -1 -11 -6 -11 -17
-114 -78 -203 -121 -121 -57 -322 -123 -448 -146 -14 -3 -36 -7 -50 -10 -55
-12 -77 -15 -125 -21 -27 -3 -61 -7 -73 -10 -13 -3 -49 -7 -80 -10 -32 -3 -79
-7 -107 -10 -83 -9 -2665 -11 -2666 -2 -3 19 -5 24 -12 35 -4 6 -4 14 1 16 10
7 9 308 -2 325 -4 6 -3 12 1 12 12 0 10 593 -2 602 -7 5 -7 8 0 8 12 0 13 318
1 338 -4 6 -3 12 1 12 12 0 10 593 -2 602 -7 5 -6 8 0 8 12 0 13 159 1 178 -4
7 -3 12 1 12 5 0 8 70 8 155 0 96 -4 155 -10 155 -6 0 -6 3 0 8 14 9 14 304 0
314 -7 5 -6 8 1 8 7 0 10 29 9 85 l-2 84 76 3 c146 6 2329 0 2482 -7z"/>
</g>
</svg>
