<?xml version="1.0" encoding="UTF-8"?><svg id="Layer_2" xmlns="http://www.w3.org/2000/svg" viewBox="0 0 1922.17 475.95"><defs><style>.cls-1{fill:#f9ebe3;}</style></defs><g id="Layer_1-2"><path class="cls-1" d="m573.17,71.26c22.31,0,43.69,11.34,43.69,39.79,0,30.3-20.26,39.79-31.98,40.71l28.82,58.93h-22.87l-27.89-58.19h-51.87v58.19h-20.08V71.26h82.17Zm-62.1,20.08v41.09h62.1c15.06,0,23.61-7.81,23.61-21.38,0-15.8-12.08-19.71-23.61-19.71h-62.1Z"/><path class="cls-1" d="m780.09,210.69h-22.68l-19.89-45.92h-62.28l-20.64,45.92h-21.94l63.02-139.43h22.31l62.1,139.43Zm-73.62-114.52l-21.94,48.52h43.88l-21.94-48.52Z"/><path class="cls-1" d="m942.58,185.78c-13.2,14.31-29.75,27.89-69.72,27.89-37.74,0-73.44-28.82-73.44-71.58s31.79-73.81,73.06-73.81c38.11,0,61.17,21.94,67.86,28.44l-15.06,12.83c-6.32-5.21-23.98-21.19-52.61-21.19-26.03,0-53.17,18.96-53.17,53.73,0,24.91,20.08,51.5,58.19,51.5,29.75,0,45.36-15.06,51.5-22.31l13.39,14.5Z"/><path class="cls-1" d="m974.19,140.97c0-43.69,34.77-72.69,74.74-72.69s74.74,28.82,74.74,72.69-34.77,72.69-74.74,72.69-74.74-28.82-74.74-72.69Zm129.4,0c0-28.82-23.05-52.61-54.66-52.61s-54.66,23.8-54.66,52.61,23.05,52.61,54.66,52.61,54.66-23.8,54.66-52.61Z"/><path class="cls-1" d="m1190.97,113.09h-.37v97.6h-20.08V71.26h20.08l47.59,86.64,47.59-86.64h20.08v139.43h-20.08v-97.6h-.37l-47.22,85.71-47.22-85.71Z"/><path class="cls-1" d="m1485.83,210.69h-22.68l-19.89-45.92h-62.28l-20.64,45.92h-21.94l63.03-139.43h22.31l62.09,139.43Zm-73.62-114.52l-21.94,48.52h43.88l-21.94-48.52Z"/><path class="cls-1" d="m486.35,365.84c9.3,6.32,22.87,21.75,56.33,21.75,18.78,0,44.43-6.69,44.43-23.8,0-22.87-26.21-22.87-43.69-22.87h-20.82c-18.96,0-41.27-10.41-41.27-35.7,0-29.56,33.46-42.95,59.12-42.95,31.42,0,51.5,14.87,57.08,18.96l-11.34,16.17c-11.9-7.07-21.75-15.06-45.18-15.06-17.48,0-39.6,6.51-39.6,22.87,0,10.78,7.81,15.99,23.8,15.99h18.41c32.72,0,63.58,8.18,63.58,42.76,0,29.19-31.05,43.69-65.81,43.69-42.02,0-60.61-19.89-69.16-28.26l14.13-13.57Z"/><path class="cls-1" d="m747.93,265.26v20.08h-48.9v119.36h-20.08v-119.36h-48.9v-20.08h117.87Z"/><path class="cls-1" d="m869.14,265.26c22.31,0,43.69,11.34,43.69,39.79,0,30.3-20.26,39.79-31.98,40.71l28.82,58.93h-22.87l-27.89-58.19h-51.87v58.19h-20.08v-139.43h82.17Zm-62.1,20.08v41.09h62.1c15.06,0,23.61-7.81,23.61-21.38,0-15.8-12.08-19.71-23.61-19.71h-62.1Z"/><path class="cls-1" d="m1076.07,404.7h-22.68l-19.89-45.92h-62.28l-20.64,45.92h-21.94l63.02-139.43h22.31l62.09,139.43Zm-73.62-114.52l-21.94,48.52h43.88l-21.94-48.52Z"/><path class="cls-1" d="m1209.18,265.26v20.08h-48.9v119.36h-20.08v-119.36h-48.9v-20.08h117.87Z"/><path class="cls-1" d="m1359.4,265.26v20.08h-94.07v36.62h47.41v20.08h-47.41v42.57h97.6v20.08h-117.68v-139.43h114.15Z"/><path class="cls-1" d="m1470.02,328.84h63.95v37c0,25.1-27.51,41.83-62.47,41.83-37.18,0-76.04-25.47-76.04-72.88,0-39.79,31.79-72.51,76.41-72.51,33.28,0,50.75,17.48,58.93,25.28l-13.94,14.32c-6.88-6.69-17.66-19.52-42.95-19.52-37,0-58.38,24.17-58.38,53.36,0,27.33,21.57,51.87,56.89,51.87,24.17,0,41.46-11.16,41.46-23.05v-15.62h-43.88v-20.08Z"/><path class="cls-1" d="m1594.03,265.26v139.43h-20.08v-139.43h20.08Z"/><path class="cls-1" d="m1758.75,265.26v20.08h-94.07v36.62h47.41v20.08h-47.41v42.57h97.6v20.08h-117.68v-139.43h114.15Z"/><path class="cls-1" d="m1801.33,365.84c9.29,6.32,22.87,21.75,56.33,21.75,18.78,0,44.43-6.69,44.43-23.8,0-22.87-26.21-22.87-43.69-22.87h-20.82c-18.96,0-41.27-10.41-41.27-35.7,0-29.56,33.46-42.95,59.12-42.95,31.42,0,51.5,14.87,57.08,18.96l-11.34,16.17c-11.9-7.07-21.75-15.06-45.18-15.06-17.48,0-39.6,6.51-39.6,22.87,0,10.78,7.81,15.99,23.8,15.99h18.41c32.72,0,63.58,8.18,63.58,42.76,0,29.19-31.05,43.69-65.81,43.69-42.02,0-60.61-19.89-69.16-28.26l14.13-13.57Z"/><path class="cls-1" d="m353.48,357.1l-4.16,1.39c-31.58,11.36-63.16,18.01-94.74,18.01-96.68,0-149.04-66.49-152.09-156.8h-55.68l-20.22,76.18H0L52.63,99.46h83.94c35.74,0,56.79,26.87,48.2,59.01l-.55,2.49c-6.37,23.82-27.98,45.43-54.57,54.57,1.11,22.99,6.09,44.88,14.96,65.1,19.95,44.88,57.07,72.03,116.35,72.03,27.15,0,56.51-5.54,83.66-16.34l4.43-1.66,4.43,22.44ZM110.81,195.87c20.78,0,41.83-16.07,47.09-34.9l.55-2.49c4.99-18.84-7.48-34.91-28.26-34.91h-57.62l-19.39,72.3h57.62Z"/><path class="cls-1" d="m209.15,241.3l.55,3.6c2.49,22.72,14.41,29.09,40.72,29.09,22.99,0,42.11-7.2,47.65-28.26,2.22-7.76-1.39-13.3-9.14-17.73-4.16-2.22-8.86-4.16-14.41-5.82-5.54-1.94-11.63-3.6-17.45-5.26-23.27-6.93-50.42-15.79-43.22-43.49,8.86-32.69,42.66-46.82,73.41-46.82h4.99c26.32,0,47.65,11.08,49.03,36.01l.28,7.76-27.15,6.93-.55-8.03c-1.11-15.51-14.96-18.56-33.24-18.56s-35.74,6.09-40.17,22.72c-1.39,5.26,1.66,9.42,10.25,13.3,8.59,3.88,20.5,6.93,32.13,10.53,23.55,7.48,49.86,18.56,41.83,48.48-9.97,36.57-45.43,52.36-80.61,52.36h-4.99c-29.92,0-52.08-13.85-55.96-40.45l-1.11-7.48,27.15-8.86Z"/><rect class="cls-1" x="415.66" width="13.47" height="475.95"/></g></svg>